<?xml version="1.0" encoding="UTF-8"?>
<svg id="Calque_1" xmlns="http://www.w3.org/2000/svg" version="1.1" viewBox="0 0 411.42 411.42">
  <!-- Generator: Adobe Illustrator 30.2.1, SVG Export Plug-In . SVG Version: 2.1.1 Build 1)  -->
  <defs>
    <style>
      .st0 {
        fill: #f5ae23;
      }

      .st1 {
        fill: #fefefe;
      }

      .st2 {
        fill: #112c61;
      }
    </style>
  </defs>
  <path class="st2" d="M411.42,205.71c0,113.61-92.1,205.71-205.71,205.71S0,319.32,0,205.71,92.1,0,205.71,0s205.71,92.1,205.71,205.71ZM83.96,315.91c7.49,8.32,15.25,15.13,24,21.97,41.29,32.32,76.42,27.48,88.02,35.88,4.57,3.3,7.98,8.23,12.35,12.04,8.27-2.71,5.84-12.87,21.84-16.57l23.59-5.44c15.53-3.58,41.08-16.34,52.37-26.67,9.79-4.79,16.79-14.28,23.77-22.21,34.09-38.73,49.01-90.02,38.67-141.57-8.65-43.13-33.46-81.37-69.75-106.47-30.54-21.12-66.7-30.68-103.88-28.96-22.6,1.05-43.73,6.97-63.91,16.87-23.42,11.49-42.24,28.79-57.5,49.68-47.52,65.08-42.42,152.68,10.44,211.45Z"/>
  <g>
    <path class="st0" d="M107.95,337.89c-8.74-6.84-16.51-13.65-24-21.97l.14-90.03c5.35-2.38,10.7-2.41,17.05-.51l.07,93.12c29.46,5.44,65.51,20.87,85.97,42.71-23-9.79-45.6-16.71-69.58-22-3.48-.77-6.61-1.31-9.64-1.32Z"/>
    <path class="st0" d="M329.89,314.91c-6.97,7.92-13.97,17.42-23.77,22.21-26.02,4.14-50.72,12.51-76.03,22.98,8.87-9.88,19.3-16.33,30.26-22.74,16.23-9.48,33.32-15.67,52.2-18.81l.04-92.5c5.51-2.93,10.82-2.78,16.69.01l-.19,85.75c0,.86.62,2.8.79,3.1Z"/>
    <path class="st0" d="M112.08,213.79c0-2.27.95-4.86,1.96-5.69,3.97-3.24,24.71,7.37,30.32,10.27,24.28,12.56,45.92,28.69,64.33,49.48,18.07-25.14,61.58-53.47,89.38-60.89,1.43-.38,3.88,2.56,3.88,4.03l-.02,97.4c-4.38,2-7.75,3.2-12.09,4.52-32.85,10.71-60.41,31.55-82.09,59.66-24.45-31.25-56.56-52.99-95.66-62.39v-96.39Z"/>
    <path class="st2" d="M208.83,253.38c-12.62-13.11-26.1-23.52-40.96-33.6-1.67-4.83-1.37-10.89-.21-16.45,12.91,3.83,23.99,8.65,35.25,14.65,4.59,2.44,9.16,2.03,13.73-.56,10.67-6.06,21.04-10.97,32.92-14.51.95,5.79.82,10.96-.14,16.23l-9.27,7c-11,7.99-20.89,16.48-31.32,27.25Z"/>
    <path class="st0" d="M100.6,206.78c-3.91,5.84-15.51,6.5-19.89.86-5.49-7.09,3.23-14.17,4.19-21.97l2.69-21.97c.09-.77,1.54-2.11,2.09-2.38.68-.34,2.64,1.4,2.74,2.17l1.99,15.56c2.15,16.85,12.31,18.6,6.19,27.73Z"/>
    <path class="st0" d="M327.98,175.83c-.68,15.07,11.87,23.03,5.94,31.63-4.64,6.72-16.04,4.56-18.84-.3-3.9-6.78,4.79-14.32,6.39-22.59l1.72-8.87,4.79.13Z"/>
    <g>
      <path class="st0" d="M144.92,192.74c-.21-.04-.6-.05-.88-.06-.98-2.51-1.14-5.5-1.04-8.91l.14-84.99,128.74.02v92.29s-63.31-22.35-63.31-22.35l-58.57,21.06c-2.05.82-3.88,1.79-5.07,2.94ZM194.73,124.17c0-10.87-8.81-19.68-19.68-19.68s-19.68,8.81-19.68,19.68,8.81,19.68,19.68,19.68,19.68-8.81,19.68-19.68ZM257.54,141.51c2.74,0,5.53-2.37,5.53-4.72l-.02-25.1c0-2.46-2.63-4.58-5.04-4.58l-50.12-.02c-2.27,0-4.94,2.42-4.94,4.56v24.34c-.02,2.74,2.21,5.49,5.12,5.5l49.48.02ZM166.01,152.83c0-3.65-2.96-6.61-6.61-6.61s-6.61,2.96-6.61,6.61,2.96,6.61,6.61,6.61,6.61-2.96,6.61-6.61ZM182.37,152.99c0-3.64-2.95-6.59-6.59-6.59s-6.59,2.95-6.59,6.59,2.95,6.59,6.59,6.59,6.59-2.95,6.59-6.59ZM199.2,152.95c0-3.66-2.97-6.63-6.63-6.63s-6.63,2.97-6.63,6.63,2.97,6.63,6.63,6.63,6.63-2.97,6.63-6.63ZM263.47,152.97c0-3.7-3-6.71-6.71-6.71s-6.71,3-6.71,6.71,3,6.71,6.71,6.71,6.71-3,6.71-6.71ZM246.1,159.23l-.06-12.7-15.88.28c-1.39,3.67-1.51,8.51-.05,11.95l15.99.47ZM221.93,157.69c1.26-2.17.79-5.61.59-8.62l-10.34.03.08,9.14c3.25.94,7.89,2.52,9.67-.55Z"/>
      <path class="st2" d="M327.98,175.83l-4.79-.13c.33-1.7-.34-5.13-.59-7.21-1.45-4.46-4.92-7.07-9.65-7.08l-35.83-.07-.07,41.33c0,1.29-1.82,3.43-2.65,3.05-3.16-1.44-.27-7.8-2.65-12.75-20.4,4.19-38.21,10.17-56.09,19.54-3.38,1.77-7.91,3.33-13.08.36-13.4-7.71-42.44-17.1-57.64-20.13,1.19-1.16,3.02-2.12,5.07-2.94l58.57-21.06,63.32,22.35v-92.29s-128.75-.02-128.75-.02l-.14,84.99c-.1,3.4.06,6.4,1.04,8.91-2.39,5.28.51,8.74-2.38,12.45-.52.67-3.53-1.19-3.53-2.93l-.06-102.99c0-8.95,4.67-16.92,14.25-16.93l108.62-.08c7.72,0,15.6,5.23,15.67,13.89l.53,60.68,35.76.11c11.27.03,15.52,9.35,15.09,18.97ZM235.29,86.6l-84.15.18c-4.03,0-7.43,3.04-6.56,6.71l91.06.1-.34-6.99ZM270.64,93.44c-3.05-7.68-8.87-6.96-14.41-6.56l.52,6.86,13.9-.3Z"/>
      <path class="st2" d="M257.54,141.51l-49.48-.02c-2.9,0-5.13-2.76-5.13-5.5v-24.34c.02-2.15,2.69-4.56,4.95-4.56l50.12.02c2.42,0,5.04,2.13,5.04,4.58l.02,25.1c0,2.34-2.79,4.72-5.53,4.72ZM248.11,120.77c.81-1.26,1.43-2.26,1.16-2.83-.2-.42-1.9-1.1-2.56-1.1h-27.66c-.98,0-2.84,1.64-2.53,2.33.25.55,1.76,1.59,2.35,1.59h29.23ZM247.27,126.35c.58,0,2.05-1.66,1.7-2s-1.67-1.41-2.44-1.41l-27.65-.06c-.81,0-2.68,1.63-2.2,2.2.35.43,1.69,1.34,2.44,1.34l28.16-.05Z"/>
      <path class="st2" d="M194.73,124.17c0,10.87-8.81,19.68-19.68,19.68s-19.68-8.81-19.68-19.68,8.81-19.68,19.68-19.68,19.68,8.81,19.68,19.68ZM191.34,124.2c0-9.01-7.3-16.31-16.31-16.31s-16.31,7.3-16.31,16.31,7.3,16.31,16.31,16.31,16.31-7.3,16.31-16.31Z"/>
      <path class="st2" d="M246.1,159.23l-15.99-.47c-1.46-3.45-1.33-8.28.05-11.95l15.88-.28.06,12.7Z"/>
      <path class="st2" d="M221.93,157.69c-1.78,3.07-6.42,1.49-9.67.55l-.08-9.14,10.34-.03c.2,3.02.67,6.45-.59,8.62Z"/>
      <path class="st2" d="M263.47,152.97c0,3.7-3,6.71-6.71,6.71s-6.71-3-6.71-6.71,3-6.71,6.71-6.71,6.71,3,6.71,6.71ZM260.55,152.93c0-2.11-1.71-3.82-3.82-3.82s-3.82,1.71-3.82,3.82,1.71,3.82,3.82,3.82,3.82-1.71,3.82-3.82Z"/>
      <path class="st2" d="M199.2,152.95c0,3.66-2.97,6.63-6.63,6.63s-6.63-2.97-6.63-6.63,2.97-6.63,6.63-6.63,6.63,2.97,6.63,6.63ZM196.28,152.87c0-2.04-1.66-3.7-3.7-3.7s-3.7,1.66-3.7,3.7,1.66,3.7,3.7,3.7,3.7-1.66,3.7-3.7Z"/>
      <path class="st2" d="M166.01,152.83c0,3.65-2.96,6.61-6.61,6.61s-6.61-2.96-6.61-6.61,2.96-6.61,6.61-6.61,6.61,2.96,6.61,6.61ZM163.12,152.75c0-2.03-1.64-3.67-3.67-3.67s-3.67,1.64-3.67,3.67,1.64,3.67,3.67,3.67,3.67-1.64,3.67-3.67Z"/>
      <path class="st2" d="M182.37,152.99c0,3.64-2.95,6.59-6.59,6.59s-6.59-2.95-6.59-6.59,2.95-6.59,6.59-6.59,6.59,2.95,6.59,6.59ZM179.22,152.84c0-2-1.62-3.62-3.62-3.62s-3.62,1.62-3.62,3.62,1.62,3.62,3.62,3.62,3.62-1.62,3.62-3.62Z"/>
      <path class="st1" d="M235.29,86.6l.34,6.99-91.06-.1c-.87-3.66,2.54-6.7,6.56-6.71l84.15-.18Z"/>
      <path class="st1" d="M270.64,93.44l-13.9.3-.52-6.86c5.54-.4,11.36-1.12,14.41,6.56Z"/>
      <path class="st1" d="M248.11,120.77h-29.23c-.59,0-2.1-1.05-2.35-1.6-.31-.69,1.56-2.32,2.53-2.32h27.66c.66,0,2.35.67,2.56,1.09.27.56-.35,1.57-1.16,2.83Z"/>
      <path class="st1" d="M247.27,126.35l-28.16.05c-.74,0-2.08-.91-2.44-1.34-.47-.57,1.4-2.2,2.2-2.2l27.65.06c.77,0,2.1,1.06,2.44,1.41s-1.12,2-1.7,2Z"/>
      <path class="st0" d="M191.34,124.2c0,9.01-7.3,16.31-16.31,16.31s-16.31-7.3-16.31-16.31,7.3-16.31,16.31-16.31,16.31,7.3,16.31,16.31ZM186.75,124.26c0-6.43-5.21-11.64-11.64-11.64s-11.64,5.21-11.64,11.64,5.21,11.64,11.64,11.64,11.64-5.21,11.64-11.64Z"/>
      <circle class="st0" cx="256.72" cy="152.93" r="3.82"/>
      <circle class="st0" cx="192.58" cy="152.87" r="3.7"/>
      <circle class="st0" cx="159.45" cy="152.75" r="3.67"/>
      <circle class="st0" cx="175.6" cy="152.84" r="3.62"/>
      <circle class="st2" cx="175.12" cy="124.26" r="11.64"/>
    </g>
  </g>
</svg>
