<?xml version="1.0" encoding="UTF-8"?>
<svg id="Calque_1" xmlns="http://www.w3.org/2000/svg" version="1.1" viewBox="0 0 1426.15 411.42">
  <!-- Generator: Adobe Illustrator 30.2.1, SVG Export Plug-In . SVG Version: 2.1.1 Build 1)  -->
  <defs>
    <style>
      .st0 {
        fill: #f5ae23;
      }

      .st1 {
        fill: #fefefe;
      }

      .st2 {
        fill: #112c61;
      }
    </style>
  </defs>
  <g>
    <path class="st2" d="M411.42,205.71c0,113.61-92.1,205.71-205.71,205.71S0,319.32,0,205.71,92.1,0,205.71,0s205.71,92.1,205.71,205.71ZM83.96,315.91c7.49,8.32,15.25,15.13,24,21.97,41.29,32.32,76.42,27.48,88.02,35.88,4.57,3.3,7.98,8.23,12.35,12.04,8.27-2.71,5.84-12.87,21.84-16.57l23.59-5.44c15.53-3.58,41.08-16.34,52.37-26.67,9.79-4.79,16.79-14.28,23.77-22.21,34.09-38.73,49.01-90.02,38.67-141.57-8.65-43.13-33.46-81.37-69.75-106.47-30.54-21.12-66.7-30.68-103.88-28.96-22.6,1.05-43.73,6.97-63.91,16.87-23.42,11.49-42.24,28.79-57.5,49.68-47.52,65.08-42.42,152.68,10.44,211.45Z"/>
    <g>
      <path class="st0" d="M107.95,337.89c-8.74-6.84-16.51-13.65-24-21.97l.14-90.03c5.35-2.38,10.7-2.41,17.05-.51l.07,93.12c29.46,5.44,65.51,20.87,85.97,42.71-23-9.79-45.6-16.71-69.58-22-3.48-.77-6.61-1.31-9.64-1.32Z"/>
      <path class="st0" d="M329.89,314.91c-6.97,7.92-13.97,17.42-23.77,22.21-26.02,4.14-50.72,12.51-76.03,22.98,8.87-9.88,19.3-16.33,30.26-22.74,16.23-9.48,33.32-15.67,52.2-18.81l.04-92.5c5.51-2.93,10.82-2.78,16.69.01l-.19,85.75c0,.86.62,2.8.79,3.1Z"/>
      <path class="st0" d="M112.08,213.79c0-2.27.95-4.86,1.96-5.69,3.97-3.24,24.71,7.37,30.32,10.27,24.28,12.56,45.92,28.69,64.33,49.48,18.07-25.14,61.58-53.47,89.38-60.89,1.43-.38,3.88,2.56,3.88,4.03l-.02,97.4c-4.38,2-7.75,3.2-12.09,4.52-32.85,10.71-60.41,31.55-82.09,59.66-24.45-31.25-56.56-52.99-95.66-62.39v-96.39Z"/>
      <path class="st2" d="M208.83,253.38c-12.62-13.11-26.1-23.52-40.96-33.6-1.67-4.83-1.37-10.89-.21-16.45,12.91,3.83,23.99,8.65,35.25,14.65,4.59,2.44,9.16,2.03,13.73-.56,10.67-6.06,21.04-10.97,32.92-14.51.95,5.79.82,10.96-.14,16.23l-9.27,7c-11,7.99-20.89,16.48-31.32,27.25Z"/>
      <path class="st0" d="M100.6,206.78c-3.91,5.84-15.51,6.5-19.89.86-5.49-7.09,3.23-14.17,4.19-21.97l2.69-21.97c.09-.77,1.54-2.11,2.09-2.38.68-.34,2.64,1.4,2.74,2.17l1.99,15.56c2.15,16.85,12.31,18.6,6.19,27.73Z"/>
      <path class="st0" d="M327.98,175.83c-.68,15.07,11.87,23.03,5.94,31.63-4.64,6.72-16.04,4.56-18.84-.3-3.9-6.78,4.79-14.32,6.39-22.59l1.72-8.87,4.79.13Z"/>
      <g>
        <path class="st0" d="M144.92,192.74c-.21-.04-.6-.05-.88-.06-.98-2.51-1.14-5.5-1.04-8.91l.14-84.99,128.74.02v92.29s-63.31-22.35-63.31-22.35l-58.57,21.06c-2.05.82-3.88,1.79-5.07,2.94ZM194.73,124.17c0-10.87-8.81-19.68-19.68-19.68s-19.68,8.81-19.68,19.68,8.81,19.68,19.68,19.68,19.68-8.81,19.68-19.68ZM257.54,141.51c2.74,0,5.53-2.37,5.53-4.72l-.02-25.1c0-2.46-2.63-4.58-5.04-4.58l-50.12-.02c-2.27,0-4.94,2.42-4.94,4.56v24.34c-.02,2.74,2.21,5.49,5.12,5.5l49.48.02ZM166.01,152.83c0-3.65-2.96-6.61-6.61-6.61s-6.61,2.96-6.61,6.61,2.96,6.61,6.61,6.61,6.61-2.96,6.61-6.61ZM182.37,152.99c0-3.64-2.95-6.59-6.59-6.59s-6.59,2.95-6.59,6.59,2.95,6.59,6.59,6.59,6.59-2.95,6.59-6.59ZM199.2,152.95c0-3.66-2.97-6.63-6.63-6.63s-6.63,2.97-6.63,6.63,2.97,6.63,6.63,6.63,6.63-2.97,6.63-6.63ZM263.47,152.97c0-3.7-3-6.71-6.71-6.71s-6.71,3-6.71,6.71,3,6.71,6.71,6.71,6.71-3,6.71-6.71ZM246.1,159.23l-.06-12.7-15.88.28c-1.39,3.67-1.51,8.51-.05,11.95l15.99.47ZM221.93,157.69c1.26-2.17.79-5.61.59-8.62l-10.34.03.08,9.14c3.25.94,7.89,2.52,9.67-.55Z"/>
        <path class="st2" d="M327.98,175.83l-4.79-.13c.33-1.7-.34-5.13-.59-7.21-1.45-4.46-4.92-7.07-9.65-7.08l-35.83-.07-.07,41.33c0,1.29-1.82,3.43-2.65,3.05-3.16-1.44-.27-7.8-2.65-12.75-20.4,4.19-38.21,10.17-56.09,19.54-3.38,1.77-7.91,3.33-13.08.36-13.4-7.71-42.44-17.1-57.64-20.13,1.19-1.16,3.02-2.12,5.07-2.94l58.57-21.06,63.32,22.35v-92.29s-128.75-.02-128.75-.02l-.14,84.99c-.1,3.4.06,6.4,1.04,8.91-2.39,5.28.51,8.74-2.38,12.45-.52.67-3.53-1.19-3.53-2.93l-.06-102.99c0-8.95,4.67-16.92,14.25-16.93l108.62-.08c7.72,0,15.6,5.23,15.67,13.89l.53,60.68,35.76.11c11.27.03,15.52,9.35,15.09,18.97ZM235.29,86.6l-84.15.18c-4.03,0-7.43,3.04-6.56,6.71l91.06.1-.34-6.99ZM270.64,93.44c-3.05-7.68-8.87-6.96-14.41-6.56l.52,6.86,13.9-.3Z"/>
        <path class="st2" d="M257.54,141.51l-49.48-.02c-2.9,0-5.13-2.76-5.13-5.5v-24.34c.02-2.15,2.69-4.56,4.95-4.56l50.12.02c2.42,0,5.04,2.13,5.04,4.58l.02,25.1c0,2.34-2.79,4.72-5.53,4.72ZM248.11,120.77c.81-1.26,1.43-2.26,1.16-2.83-.2-.42-1.9-1.1-2.56-1.1h-27.66c-.98,0-2.84,1.64-2.53,2.33.25.55,1.76,1.59,2.35,1.59h29.23ZM247.27,126.35c.58,0,2.05-1.66,1.7-2s-1.67-1.41-2.44-1.41l-27.65-.06c-.81,0-2.68,1.63-2.2,2.2.35.43,1.69,1.34,2.44,1.34l28.16-.05Z"/>
        <path class="st2" d="M194.73,124.17c0,10.87-8.81,19.68-19.68,19.68s-19.68-8.81-19.68-19.68,8.81-19.68,19.68-19.68,19.68,8.81,19.68,19.68ZM191.34,124.2c0-9.01-7.3-16.31-16.31-16.31s-16.31,7.3-16.31,16.31,7.3,16.31,16.31,16.31,16.31-7.3,16.31-16.31Z"/>
        <path class="st2" d="M246.1,159.23l-15.99-.47c-1.46-3.45-1.33-8.28.05-11.95l15.88-.28.06,12.7Z"/>
        <path class="st2" d="M221.93,157.69c-1.78,3.07-6.42,1.49-9.67.55l-.08-9.14,10.34-.03c.2,3.02.67,6.45-.59,8.62Z"/>
        <path class="st2" d="M263.47,152.97c0,3.7-3,6.71-6.71,6.71s-6.71-3-6.71-6.71,3-6.71,6.71-6.71,6.71,3,6.71,6.71ZM260.55,152.93c0-2.11-1.71-3.82-3.82-3.82s-3.82,1.71-3.82,3.82,1.71,3.82,3.82,3.82,3.82-1.71,3.82-3.82Z"/>
        <path class="st2" d="M199.2,152.95c0,3.66-2.97,6.63-6.63,6.63s-6.63-2.97-6.63-6.63,2.97-6.63,6.63-6.63,6.63,2.97,6.63,6.63ZM196.28,152.87c0-2.04-1.66-3.7-3.7-3.7s-3.7,1.66-3.7,3.7,1.66,3.7,3.7,3.7,3.7-1.66,3.7-3.7Z"/>
        <path class="st2" d="M166.01,152.83c0,3.65-2.96,6.61-6.61,6.61s-6.61-2.96-6.61-6.61,2.96-6.61,6.61-6.61,6.61,2.96,6.61,6.61ZM163.12,152.75c0-2.03-1.64-3.67-3.67-3.67s-3.67,1.64-3.67,3.67,1.64,3.67,3.67,3.67,3.67-1.64,3.67-3.67Z"/>
        <path class="st2" d="M182.37,152.99c0,3.64-2.95,6.59-6.59,6.59s-6.59-2.95-6.59-6.59,2.95-6.59,6.59-6.59,6.59,2.95,6.59,6.59ZM179.22,152.84c0-2-1.62-3.62-3.62-3.62s-3.62,1.62-3.62,3.62,1.62,3.62,3.62,3.62,3.62-1.62,3.62-3.62Z"/>
        <path class="st1" d="M235.29,86.6l.34,6.99-91.06-.1c-.87-3.66,2.54-6.7,6.56-6.71l84.15-.18Z"/>
        <path class="st1" d="M270.64,93.44l-13.9.3-.52-6.86c5.54-.4,11.36-1.12,14.41,6.56Z"/>
        <path class="st1" d="M248.11,120.77h-29.23c-.59,0-2.1-1.05-2.35-1.6-.31-.69,1.56-2.32,2.53-2.32h27.66c.66,0,2.35.67,2.56,1.09.27.56-.35,1.57-1.16,2.83Z"/>
        <path class="st1" d="M247.27,126.35l-28.16.05c-.74,0-2.08-.91-2.44-1.34-.47-.57,1.4-2.2,2.2-2.2l27.65.06c.77,0,2.1,1.06,2.44,1.41s-1.12,2-1.7,2Z"/>
        <path class="st0" d="M191.34,124.2c0,9.01-7.3,16.31-16.31,16.31s-16.31-7.3-16.31-16.31,7.3-16.31,16.31-16.31,16.31,7.3,16.31,16.31ZM186.75,124.26c0-6.43-5.21-11.64-11.64-11.64s-11.64,5.21-11.64,11.64,5.21,11.64,11.64,11.64,11.64-5.21,11.64-11.64Z"/>
        <circle class="st0" cx="256.72" cy="152.93" r="3.82"/>
        <circle class="st0" cx="192.58" cy="152.87" r="3.7"/>
        <circle class="st0" cx="159.45" cy="152.75" r="3.67"/>
        <circle class="st0" cx="175.6" cy="152.84" r="3.62"/>
        <circle class="st2" cx="175.12" cy="124.26" r="11.64"/>
      </g>
    </g>
  </g>
  <g>
    <path class="st0" d="M1042.56,244.04c-16.26,7.57-46.68,7.2-62.16-1.67-10.34-5.93-16.86-16.09-15.06-28.51,9.01-1.49,18.82-2.1,27.82-.58.74,6.47,3.06,12,9.2,14.33,8.45,3.21,18.04,3.42,26.12-1.11,3.59-2.01,5.32-6.11,4.98-10.16-1.04-12.4-30.06-10.99-51.8-23.17-10.17-5.7-15.42-15.8-14.36-27.26,3.13-33.77,51.57-34.15,71.27-25.58,12.48,5.43,19.71,17.16,17.47,31.17-7.13,1.12-15.39,1.51-22.67.07-2.41-6.21-5.45-11.35-12.33-12.9-7.37-1.66-22.46-2.47-24.35,6.8-4.98,24.38,62.33,8.93,63.63,49.79.4,12.51-5.64,23.15-17.76,28.79Z"/>
    <path class="st0" d="M569.69,242.59c-15.9,9.36-50.36,9.53-67.12-2.34-8.55-6.06-14.31-16.06-12.13-26.73,9.04-1.04,18.23-1.31,26.75-.48.68,6.55,3.1,12.03,9.16,14.45,8.36,3.34,18.01,3.47,25.85-1.3,3.43-2.08,5.32-5.96,4.91-9.83-.34-3.14-3.65-7.17-7.6-8.34l-32.25-9.6c-7.6-2.26-15.07-6.61-19.85-12.89-10.46-13.73-5.91-32.7,8.14-41.98,15.88-10.48,43.83-9.93,59.41-1.74,11.16,5.87,17.7,16.71,15.31,29.74-7.47.88-14.84.96-22.56.6-1.71-6.91-5.88-11.71-12.71-13.54-7.97-2.14-23.61-1.51-24.09,8.93-.96,21.13,71.72,8.57,63.64,55.22-1.36,7.84-6.78,15.1-14.86,19.86Z"/>
    <path class="st0" d="M1269.53,238.26c-5.63,7.25-12.58,10.44-21.52,11-14.18.89-26.53-6.14-31.72-19.95-4.76-12.67-5.13-27.79-.63-40.61,5.48-15.62,19.75-24.55,35.71-22.18,7.06,1.04,11.9,4.47,17.32,9.88l-.15-32.26c-.04-9,13.95-6.85,21.63-6.46,1.95.1,3.81,2.93,3.81,5.17l.12,91.88c0,4.03.67,8.07-.34,11.83-7.19,2.36-14.75,2.16-21.84.54l-2.38-8.84ZM1267.73,197.1c-1.32-6.37-5.99-10.65-11.43-11.39-6.25-.85-12.16,2.14-14.67,8.23-3.82,9.27-4.46,20.74.2,29.76,2.6,5.03,8.37,6.44,13.41,5.94,15.59-1.55,14.87-21.04,12.49-32.55Z"/>
    <path class="st0" d="M911.4,174.12l-30.47,79.91c-7.75,20.33-24.78,34.22-47.16,26.82-3.2-5.54-3.41-12.83-2.26-19.29,3.01-.36,5.4-.63,8.88-.51,5.19.19,16.42-6.03,13.51-12.72l-31.63-72.56c-.53-1.22-.52-4.6.22-5.56s3.09-1.88,4.42-1.9l20.14-.32c1.12.9,2.98,2.77,3.43,4.04l17.57,48.94,14.52-44.76c.98-3.02,2.46-5.62,4.53-8.04h23.49c1,.98,1.5,4.12.81,5.94Z"/>
    <path class="st0" d="M715.5,246.93c-6.7,2.1-13.34,2.38-19.94,2.37-13.71-.02-26.93-5.77-34.42-17.52-5.51-8.65-6.4-18.65-5.7-28.74,1.2-17.39,12.85-31.73,30.16-35.53,8.66-1.9,17.89-1.69,26.41.31,19.09,4.48,30.27,20.92,30.51,40.06.23,17.81-9.07,33.41-27.03,39.05ZM713.48,220.76c3.86-9.15,3.47-19.71-1.09-28.18-2.68-4.98-8.14-6.94-13.26-7.31-4.58-.33-9.95,1.71-12.85,5.93-6.35,9.25-7.11,34.96,8.76,38.29,7.32,1.54,15.14-.89,18.45-8.72Z"/>
    <path class="st0" d="M1426.15,210.34c-.3,21.68-16.13,37.62-37.05,38.83-9.4.54-18.87.07-27.39-4.16-14.31-7.11-20.93-21.59-21.03-37.08-.15-23.87,17.38-41.63,41.36-41.71,13.11-.05,26.14,3.28,34.86,13.52,7.11,8.35,9.42,19.08,9.26,30.61ZM1398.28,220.46c3.89-9.39,3.22-19.7-1.64-28.33-2.5-4.44-7.77-6.56-12.3-6.83-4.82-.29-10.06,1.66-12.91,5.95-5.72,8.63-7.8,34.52,8.59,38.3,7.34,1.69,15.05-1.35,18.25-9.08Z"/>
    <path class="st0" d="M1201.41,168.42c2.06.1,2.93,4.53,2.93,6.48l-.06,71.12c-7.03,3.22-14.56,2.92-22.13,1.56l-2.63-8.98c-5.81,7.56-14.22,10.77-23.48,10.75-14.29-.04-25.55-10.03-25.69-24.94l-.49-51.68c-.02-2.18,2.04-4.6,4.01-4.58l17.24.12c1.73.01,3.76,2.46,3.76,4.51v43.91c0,8.02,6.53,12.96,14.07,12.27,6.19-.57,10.91-4.78,10.91-11.22v-45.05c-.01-6.68,13.25-4.68,21.57-4.28Z"/>
    <path class="st0" d="M636.45,227.85l11.14-.29c1.5,6.2,1.45,12.45.14,19.32-8.16,2.12-16.01,2.35-24.46,1.35-11.47-1.36-20.07-10.43-20.24-22.48l-.57-39.76-10.72-.82c-1.32-5.59-1.36-10.23-.25-15.87,3.57-.76,6.48-1.08,11.13-1.47l.3-15.2c.15-7.4,12.95-5.42,20.37-5.07,3.35.16,5.61,3.02,5.56,6.14l-.21,14.39,17.79.6c3.38,1.6,3.36,16.74-.18,16.99-6.51.47-10.99.45-17.88.51l.15,32.7c.02,4.46,2.68,9.1,7.92,8.97Z"/>
    <path class="st0" d="M1119.23,227.78c1.05,6.55,1.18,12.12.49,19.24-8.17,1.9-16,2.52-24.44,1.27-10.9-1.62-19.07-10.33-19.83-21.82-.88-13.31-.38-26.71-.57-40.34l-11.07-.6c-1.05-5.44-1.17-10.27-.2-16.16,3.61-.7,6.44-1,11.07-1.41l.52-19.28c6.84-2.12,15.67-1.95,22.55-.65,1.31.25,2.85,3.67,2.83,5.04l-.13,15,18.55.62c1.82,5.75,2.32,11.72-.03,17.04l-19.13.53.3,33.87c.05,5.17,4.23,8.08,8.69,7.96l10.42-.3Z"/>
    <path class="st0" d="M779.01,247.84c-7.13.5-13.93.59-20.79-.37-1.67-.23-2.72-4.21-2.72-5.79l-.08-66.88c0-1.89.26-5.61,2.14-6.06,8.34-1.98,16.33-2.12,24.57-.46l1.16,10.67c6.93-11.17,18.7-16.34,30.91-11.09.5,7.51.33,14.64-.92,22.32-7.81,2.19-16.14-4.05-24.51,2.75-2.68,2.17-5.97,7.24-5.98,11.83l-.04,38.21c0,2.11-1.54,4.72-3.74,4.87Z"/>
    <path class="st0" d="M1331.33,242.73c.01,7.09-12.49,5.58-20.38,5.49-1.42-.02-4.95-2.1-4.95-3.52l-.06-74.61c7.45-2.12,15.53-2.2,22.62-.88,1.49.28,2.64,4.15,2.64,5.58l.13,67.94Z"/>
    <path class="st0" d="M1332.62,146.48c.69,4.46-.19,8.92-2.8,11.72-2.91,3.13-7.35,3.98-11.8,3.98-8.43,0-14.87-4.97-15.14-12.84-.29-8.37,6.35-13.7,15.11-13.51,6.83.14,13.41,2.72,14.64,10.64Z"/>
  </g>
</svg>
